<?xml version="1.0" encoding="utf-8"?>
<?xml-stylesheet type="text/xsl" href="rss1.xsl"?>
<rss version="2.0" xmlns:atom="http://www.w3.org/2005/Atom" xmlns:content="http://purl.org/rss/1.0/modules/content/" xmlns:dc="http://purl.org/dc/elements/1.1/" xmlns:media="http://search.yahoo.com/mrss/">
<channel>
 <title>Getty</title>
 <link>http://www.gettyimg.com/</link>
 <atom:link href="http://www.gettyimg.com/" rel="self" type="application/rss+xml" />

 
                <item>
                <title><![CDATA[【HD Live Performances】WEB-DL - Sabrina Carpenter - Lollapalooza 2023-08-04 WEB-DL(HULU) 720p H264]]></title>
                <link><![CDATA[https://sharemania.us/threads/sabrina-carpenter-lollapalooza-2023-08-04-web-dl-hulu-720p-h264.225911/]]></link>
                <description><![CDATA[<article>
<blockquote class="messageText SelectQuoteContainer ugc baseHtml">
<img src="https://img88.pixhost.to/images/772/371447378_maxresdefault.jpg" class="bbCodeImage LbImage" alt="[​IMG]" data-url="https://img88.pixhost.to/images/772/371447378_maxresdefault.jpg" style=""><br>
<img src="https://img88.pixhost.to/images/772/371447412_sabrina-carpenter-lollapalooza-2023-08-04-web-dl-hulu-720p-h264-sabrina-car.jpg" class="bbCodeImage LbImage" alt="[​IMG]" data-url="https://img88.pixhost.to/images/772/371447412_sabrina-carpenter-lollapalooza-2023-08-04-web-dl-hulu-720p-h264-sabrina-car.jpg" style=""><br>
<div class="ToggleTriggerAnchor bbCodeSpoilerContainer">
<button type="button" class="button bbCodeSpoilerButton ToggleTrigger Tooltip JsOnly" data-target="> .SpoilerTarget"><span>Spoiler: <span class="SpoilerTitle">MediaInfo</span></span></button>
<div class="SpoilerTarget bbCodeSpoilerText"><span style="color: #000000">Complete name : Sabrina Carpenter - Lollapalooza 2023-08-04 WEB-DL(HULU) 720p H264【Sabrina Carpenter Live】.mkv<br>
Format : Matroska<br>
Format version : Version 4<br>
File size : 2.29 GiB<br>
Duration : 58 min 28 s<br>
Overall bit rate : 5 598 kb/s<br>
Frame rate : 59.940 FPS<br>
Encoded date : 2023-08-05 10:48:18 UTC<br>
Writing application : mkvmerge v11.0.0 ('Alive') 64bit<br>
Writing library : libebml v1.3.4 + libmatroska v1.4.5<br>
<br>
Video<br>
ID : 1<br>
Format : AVC<br>
Format/Info : Advanced Video Codec<br>
Format profile : High@L4<br>
Format settings : CABAC / 4 Ref Frames<br>
Format settings, CABAC : Yes<br>
Format settings, Reference : 4 frames<br>
Codec ID : V_MPEG4/ISO/AVC<br>
Duration : 58 min 28 s<br>
Bit rate mode : Constant<br>
Bit rate : 5 472 kb/s<br>
Width : 1 280 pixels<br>
Height : 720 pixels<br>
Display aspect ratio : 16:9<br>
Frame rate mode : Constant<br>
Frame rate : 59.940 (60000/1001) FPS<br>
Color space : YUV<br>
Chroma subsampling : 4:2:0<br>
Bit depth : 8 bits<br>
Scan type : Progressive<br>
Bits/(Pixel*Frame) : 0.099<br>
Stream size : 2.23 GiB (98%)<br>
Default : Yes<br>
Forced : No<br>
<br>
Audio<br>
ID : 2<br>
Format : AAC LC<br>
Format/Info : Advanced Audio Codec Low Complexity<br>
Codec ID : A_AAC-2<br>
Duration : 58 min 28 s<br>
Bit rate : 125 kb/s<br>
Channel(s) : 2 channels<br>
Channel layout : L R<br>
Sampling rate : 48.0 kHz<br>
Frame rate : 46.875 FP</span><b><span style="color: rgb(0, 0, 0)">y</span><br>
</b><br>
<span style="color: #000000">Delay relative to video : 2 ms<br>
Stream size : 52.4 MiB (2%)<br>
Default : Yes<br>
Forced : No</span></div>
</div><b><span style="color: #0000ff">G</span><span style="color: #59b300">Drive</span></b><br>
<br>
<div class="bbCodeBlock bbCodeVfcHH HiddenContent">
<div class="attribution type">Hidden Content:</div>
<blockquote>You must reply before you can see the hidden data contained here.</blockquote>
</div><b>Credits to <a href="https://sharemania.us/members/p1956.2354/" class="internalLink">P1956</a> who gave me the download link<br>
Credits to the original capturer of the video </b><br>
<img src="styles/default/xenforo/smilies/big_smile-48.png" class="mceSmilie" alt=":)" title="Smile    :)">
<div class="messageTextEndMarker">&nbsp;</div>
</blockquote>
</article>]]></description>
                <author><![CDATA[edgar]]></author>
                </item>

                </channel></rss>